<svg width="246" height="36" viewBox="0 0 246 36" fill="none" xmlns="http://www.w3.org/2000/svg">
<rect width="246" height="36" fill="white"/>
<path d="M44.4294 16.3891V8.48113C44.4257 7.47705 44.0252 6.51515 43.3152 5.80515C42.6052 5.09515 41.6433 4.69464 40.6392 4.69094H39.1653V3.80189C39.1653 2.79356 38.7647 1.82654 38.0517 1.11355C37.3387 0.400555 36.3717 0 35.3634 0C34.3551 0 33.388 0.400555 32.6751 1.11355C31.9621 1.82654 31.5615 2.79356 31.5615 3.80189V16.3891H14.9268V3.80189C14.9268 2.79356 14.5262 1.82654 13.8132 1.11355C13.1003 0.400555 12.1332 0 11.1249 0C10.1166 0 9.14956 0.400555 8.43657 1.11355C7.72357 1.82654 7.32302 2.79356 7.32302 3.80189V4.69094H5.84906C4.84384 4.69094 3.87979 5.09027 3.16899 5.80106C2.45819 6.51186 2.05887 7.47591 2.05887 8.48113V16.3891H1.16981C0.859558 16.3891 0.562012 16.5123 0.342629 16.7317C0.123247 16.9511 0 17.2486 0 17.5589C0 17.8691 0.123247 18.1667 0.342629 18.386C0.562012 18.6054 0.859558 18.7287 1.16981 18.7287H2.05887V26.6132C2.0564 27.1127 2.15259 27.6078 2.3419 28.0701C2.53121 28.5324 2.80993 28.9527 3.16207 29.307C3.5142 29.6613 3.93283 29.9426 4.39393 30.1348C4.85502 30.327 5.34952 30.4262 5.84906 30.4268H7.33472V31.2925C7.33472 32.3008 7.73527 33.2678 8.44826 33.9808C9.16126 34.6938 10.1283 35.0943 11.1366 35.0943C12.1449 35.0943 13.112 34.6938 13.8249 33.9808C14.5379 33.2678 14.9385 32.3008 14.9385 31.2925V18.7287H31.5732V31.2925C31.5732 32.3008 31.9738 33.2678 32.6868 33.9808C33.3997 34.6938 34.3668 35.0943 35.3751 35.0943C36.3834 35.0943 37.3504 34.6938 38.0634 33.9808C38.7764 33.2678 39.177 32.3008 39.177 31.2925V30.4268H40.6509C41.6587 30.4218 42.6234 30.0177 43.3338 29.3029C44.0442 28.5882 44.4424 27.621 44.4411 26.6132V18.7287H45.3302C45.6404 18.7287 45.938 18.6054 46.1574 18.386C46.3768 18.1667 46.5 17.8691 46.5 17.5589C46.5 17.2486 46.3768 16.9511 46.1574 16.7317C45.938 16.5123 45.6404 16.3891 45.3302 16.3891H44.4294ZM7.33472 28.0872H5.86076C5.66873 28.0856 5.47888 28.0463 5.30205 27.9714C5.12523 27.8965 4.96489 27.7875 4.83019 27.6506C4.69549 27.5138 4.58907 27.3517 4.51701 27.1737C4.44494 26.9957 4.40865 26.8052 4.41019 26.6132V8.48113C4.41203 8.09699 4.56545 7.7291 4.83709 7.45747C5.10872 7.18583 5.47661 7.03241 5.86076 7.03057H7.33472V28.0872ZM12.5989 31.2925C12.5964 31.6826 12.4403 32.0561 12.1644 32.332C11.8886 32.6079 11.5151 32.764 11.1249 32.7664C10.9329 32.7649 10.743 32.7255 10.5662 32.6506C10.3894 32.5757 10.229 32.4667 10.0943 32.3299C9.95964 32.193 9.85322 32.0309 9.78116 31.8529C9.70909 31.6749 9.6728 31.4845 9.67434 31.2925V3.80189C9.67618 3.41774 9.82961 3.04986 10.1012 2.77822C10.3729 2.50659 10.7408 2.35317 11.1249 2.35132C11.5114 2.35247 11.8822 2.50494 12.1577 2.77607C12.4332 3.04719 12.5915 3.41542 12.5989 3.80189V31.2925ZM36.8374 31.2925C36.8374 31.6803 36.6833 32.0522 36.4091 32.3264C36.1348 32.6007 35.7629 32.7547 35.3751 32.7547C34.9873 32.7547 34.6153 32.6007 34.3411 32.3264C34.0669 32.0522 33.9128 31.6803 33.9128 31.2925V3.80189C33.9128 3.41407 34.0669 3.04214 34.3411 2.76791C34.6153 2.49368 34.9873 2.33962 35.3751 2.33962C35.7629 2.33962 36.1348 2.49368 36.4091 2.76791C36.6833 3.04214 36.8374 3.41407 36.8374 3.80189V31.2925ZM42.1015 26.6132C42.1031 26.8052 42.0668 26.9957 41.9947 27.1737C41.9226 27.3517 41.8162 27.5138 41.6815 27.6506C41.5468 27.7875 41.3865 27.8965 41.2096 27.9714C41.0328 28.0463 40.843 28.0856 40.6509 28.0872H39.177V7.03057H40.6509C41.0351 7.03241 41.403 7.18583 41.6746 7.45747C41.9462 7.7291 42.0997 8.09699 42.1015 8.48113V26.6132Z" fill="black"/>
<path d="M55.8182 30V6.72727H69.7727V9.22727H58.6364V17.0909H68.7273V19.5909H58.6364V30H55.8182Z" fill="black"/>
<path d="M74.2358 30V12.5455H76.9176V30H74.2358ZM75.5994 9.63636C75.0767 9.63636 74.6259 9.45833 74.2472 9.10227C73.8759 8.74621 73.6903 8.31818 73.6903 7.81818C73.6903 7.31818 73.8759 6.89015 74.2472 6.53409C74.6259 6.17803 75.0767 6 75.5994 6C76.1222 6 76.5691 6.17803 76.9403 6.53409C77.3191 6.89015 77.5085 7.31818 77.5085 7.81818C77.5085 8.31818 77.3191 8.74621 76.9403 9.10227C76.5691 9.45833 76.1222 9.63636 75.5994 9.63636Z" fill="black"/>
<path d="M89.4205 12.5455V14.8182H80.375V12.5455H89.4205ZM83.0114 8.36364H85.6932V25C85.6932 25.7576 85.803 26.3258 86.0227 26.7045C86.25 27.0758 86.5379 27.3258 86.8864 27.4545C87.2424 27.5758 87.6174 27.6364 88.0114 27.6364C88.3068 27.6364 88.5492 27.6212 88.7386 27.5909C88.928 27.553 89.0795 27.5227 89.1932 27.5L89.7386 29.9091C89.5568 29.9773 89.303 30.0455 88.9773 30.1136C88.6515 30.1894 88.2386 30.2273 87.7386 30.2273C86.9811 30.2273 86.2386 30.0644 85.5114 29.7386C84.7917 29.4129 84.1932 28.9167 83.7159 28.25C83.2462 27.5833 83.0114 26.7424 83.0114 25.7273V8.36364Z" fill="black"/>
<path d="M96.1364 19.5V30H93.4545V12.5455H96.0455V15.2727H96.2727C96.6818 14.3864 97.303 13.6742 98.1364 13.1364C98.9697 12.5909 100.045 12.3182 101.364 12.3182C102.545 12.3182 103.58 12.5606 104.466 13.0455C105.352 13.5227 106.042 14.25 106.534 15.2273C107.027 16.197 107.273 17.4242 107.273 18.9091V30H104.591V19.0909C104.591 17.7197 104.235 16.6515 103.523 15.8864C102.811 15.1136 101.833 14.7273 100.591 14.7273C99.7349 14.7273 98.9697 14.9129 98.2955 15.2841C97.6288 15.6553 97.1023 16.197 96.7159 16.9091C96.3295 17.6212 96.1364 18.4848 96.1364 19.5Z" fill="black"/>
<path d="M119.491 30.3636C117.81 30.3636 116.359 29.9924 115.139 29.25C113.927 28.5 112.991 27.4545 112.332 26.1136C111.681 24.7652 111.355 23.197 111.355 21.4091C111.355 19.6212 111.681 18.0455 112.332 16.6818C112.991 15.3106 113.908 14.2424 115.082 13.4773C116.264 12.7045 117.643 12.3182 119.219 12.3182C120.128 12.3182 121.026 12.4697 121.912 12.7727C122.798 13.0758 123.605 13.5682 124.332 14.25C125.06 14.9242 125.639 15.8182 126.071 16.9318C126.503 18.0455 126.719 19.4167 126.719 21.0455V22.1818H113.264V19.8636H123.991C123.991 18.8788 123.795 18 123.401 17.2273C123.014 16.4545 122.461 15.8447 121.741 15.3977C121.029 14.9508 120.188 14.7273 119.219 14.7273C118.151 14.7273 117.226 14.9924 116.446 15.5227C115.673 16.0455 115.079 16.7273 114.662 17.5682C114.245 18.4091 114.037 19.3106 114.037 20.2727V21.8182C114.037 23.1364 114.264 24.2538 114.719 25.1705C115.181 26.0795 115.821 26.7727 116.639 27.25C117.457 27.7197 118.408 27.9545 119.491 27.9545C120.196 27.9545 120.832 27.8561 121.401 27.6591C121.976 27.4545 122.473 27.1515 122.889 26.75C123.306 26.3409 123.628 25.8333 123.855 25.2273L126.446 25.9545C126.173 26.8333 125.715 27.6061 125.071 28.2727C124.427 28.9318 123.632 29.447 122.685 29.8182C121.738 30.1818 120.673 30.3636 119.491 30.3636Z" fill="black"/>
<path d="M143.162 16.4545L140.753 17.1364C140.601 16.7348 140.378 16.3447 140.082 15.9659C139.795 15.5795 139.401 15.2614 138.901 15.0114C138.401 14.7614 137.76 14.6364 136.98 14.6364C135.912 14.6364 135.022 14.8826 134.31 15.375C133.605 15.8598 133.253 16.4773 133.253 17.2273C133.253 17.8939 133.495 18.4205 133.98 18.8068C134.465 19.1932 135.223 19.5152 136.253 19.7727L138.844 20.4091C140.404 20.7879 141.567 21.3674 142.332 22.1477C143.098 22.9205 143.48 23.9167 143.48 25.1364C143.48 26.1364 143.192 27.0303 142.616 27.8182C142.048 28.6061 141.253 29.2273 140.23 29.6818C139.207 30.1364 138.018 30.3636 136.662 30.3636C134.882 30.3636 133.408 29.9773 132.241 29.2045C131.075 28.4318 130.336 27.303 130.026 25.8182L132.571 25.1818C132.813 26.1212 133.272 26.8258 133.946 27.2955C134.628 27.7652 135.518 28 136.616 28C137.866 28 138.859 27.7348 139.594 27.2045C140.336 26.6667 140.707 26.0227 140.707 25.2727C140.707 24.6667 140.495 24.1591 140.071 23.75C139.647 23.3333 138.995 23.0227 138.116 22.8182L135.207 22.1364C133.609 21.7576 132.435 21.1705 131.685 20.375C130.942 19.572 130.571 18.5682 130.571 17.3636C130.571 16.3788 130.848 15.5076 131.401 14.75C131.961 13.9924 132.723 13.3977 133.685 12.9659C134.654 12.5341 135.753 12.3182 136.98 12.3182C138.707 12.3182 140.063 12.697 141.048 13.4545C142.041 14.2121 142.745 15.2121 143.162 16.4545Z" fill="black"/>
<path d="M159.881 16.4545L157.472 17.1364C157.32 16.7348 157.097 16.3447 156.801 15.9659C156.513 15.5795 156.119 15.2614 155.619 15.0114C155.119 14.7614 154.479 14.6364 153.699 14.6364C152.631 14.6364 151.741 14.8826 151.028 15.375C150.324 15.8598 149.972 16.4773 149.972 17.2273C149.972 17.8939 150.214 18.4205 150.699 18.8068C151.184 19.1932 151.941 19.5152 152.972 19.7727L155.562 20.4091C157.123 20.7879 158.286 21.3674 159.051 22.1477C159.816 22.9205 160.199 23.9167 160.199 25.1364C160.199 26.1364 159.911 27.0303 159.335 27.8182C158.767 28.6061 157.972 29.2273 156.949 29.6818C155.926 30.1364 154.737 30.3636 153.381 30.3636C151.6 30.3636 150.127 29.9773 148.96 29.2045C147.794 28.4318 147.055 27.303 146.744 25.8182L149.29 25.1818C149.532 26.1212 149.991 26.8258 150.665 27.2955C151.347 27.7652 152.237 28 153.335 28C154.585 28 155.578 27.7348 156.312 27.2045C157.055 26.6667 157.426 26.0227 157.426 25.2727C157.426 24.6667 157.214 24.1591 156.79 23.75C156.366 23.3333 155.714 23.0227 154.835 22.8182L151.926 22.1364C150.328 21.7576 149.153 21.1705 148.403 20.375C147.661 19.572 147.29 18.5682 147.29 17.3636C147.29 16.3788 147.566 15.5076 148.119 14.75C148.68 13.9924 149.441 13.3977 150.403 12.9659C151.373 12.5341 152.472 12.3182 153.699 12.3182C155.426 12.3182 156.782 12.697 157.767 13.4545C158.759 14.2121 159.464 15.2121 159.881 16.4545Z" fill="black"/>
<path d="M192.054 6.72727V30H189.327L176.645 11.7273H176.418V30H173.599V6.72727H176.327L189.054 25.0455H189.281V6.72727H192.054Z" fill="black"/>
<path d="M204.42 30.3636C202.845 30.3636 201.462 29.9886 200.273 29.2386C199.091 28.4886 198.167 27.4394 197.5 26.0909C196.841 24.7424 196.511 23.1667 196.511 21.3636C196.511 19.5455 196.841 17.9583 197.5 16.6023C198.167 15.2462 199.091 14.1932 200.273 13.4432C201.462 12.6932 202.845 12.3182 204.42 12.3182C205.996 12.3182 207.375 12.6932 208.557 13.4432C209.746 14.1932 210.67 15.2462 211.33 16.6023C211.996 17.9583 212.33 19.5455 212.33 21.3636C212.33 23.1667 211.996 24.7424 211.33 26.0909C210.67 27.4394 209.746 28.4886 208.557 29.2386C207.375 29.9886 205.996 30.3636 204.42 30.3636ZM204.42 27.9545C205.617 27.9545 206.602 27.6477 207.375 27.0341C208.148 26.4205 208.72 25.6136 209.091 24.6136C209.462 23.6136 209.648 22.5303 209.648 21.3636C209.648 20.197 209.462 19.1098 209.091 18.1023C208.72 17.0947 208.148 16.2803 207.375 15.6591C206.602 15.0379 205.617 14.7273 204.42 14.7273C203.223 14.7273 202.239 15.0379 201.466 15.6591C200.693 16.2803 200.121 17.0947 199.75 18.1023C199.379 19.1098 199.193 20.197 199.193 21.3636C199.193 22.5303 199.379 23.6136 199.75 24.6136C200.121 25.6136 200.693 26.4205 201.466 27.0341C202.239 27.6477 203.223 27.9545 204.42 27.9545Z" fill="black"/>
<path d="M219.784 30L214.466 12.5455H217.284L221.057 25.9091H221.239L224.966 12.5455H227.83L231.511 25.8636H231.693L235.466 12.5455H238.284L232.966 30H230.33L226.511 16.5909H226.239L222.42 30H219.784Z" fill="black"/>
<path d="M245.375 6.72727L245.148 23.4545H242.511L242.284 6.72727H245.375ZM243.83 30.1818C243.269 30.1818 242.788 29.9811 242.386 29.5795C241.985 29.178 241.784 28.697 241.784 28.1364C241.784 27.5758 241.985 27.0947 242.386 26.6932C242.788 26.2917 243.269 26.0909 243.83 26.0909C244.39 26.0909 244.871 26.2917 245.273 26.6932C245.674 27.0947 245.875 27.5758 245.875 28.1364C245.875 28.5076 245.78 28.8485 245.591 29.1591C245.409 29.4697 245.163 29.7197 244.852 29.9091C244.549 30.0909 244.208 30.1818 243.83 30.1818Z" fill="black"/>
</svg>
